<?xml version="1.0" standalone="no"?>
<!DOCTYPE svg PUBLIC "-//W3C//DTD SVG 20010904//EN"
 "http://www.w3.org/TR/2001/REC-SVG-20010904/DTD/svg10.dtd">
<svg version="1.0" xmlns="http://www.w3.org/2000/svg"
 width="1024.000000pt" height="1024.000000pt" viewBox="0 0 1024.000000 1024.000000"
 preserveAspectRatio="xMidYMid meet">
<metadata>
Created by potrace 1.11, written by Peter Selinger 2001-2013
</metadata>
<g transform="translate(0.000000,1024.000000) scale(0.100000,-0.100000)"
fill="#000000" stroke="none">
<path d="M4918 8695 c-2 -2 -21 -6 -43 -9 -132 -19 -132 -19 -235 -46 -47 -12
-89 -25 -95 -29 -5 -4 -28 -13 -50 -20 -65 -21 -204 -89 -285 -139 -135 -83
-223 -154 -350 -282 -126 -126 -135 -136 -180 -200 -13 -19 -32 -43 -41 -53
-9 -9 -22 -30 -30 -45 -7 -15 -23 -40 -35 -57 -36 -50 -121 -234 -153 -330
-34 -102 -56 -195 -66 -274 -4 -30 -9 -63 -12 -75 -10 -38 -11 -380 -2 -436 5
-30 11 -73 14 -95 10 -69 46 -206 74 -290 85 -243 230 -467 433 -667 107 -106
310 -268 335 -268 7 0 13 -4 13 -9 0 -12 209 -114 300 -146 98 -34 244 -73
306 -80 27 -3 76 -9 109 -14 64 -9 416 -8 431 2 5 3 34 8 64 12 121 14 324 79
471 149 93 44 253 145 296 185 12 12 25 21 28 21 15 0 249 228 297 290 14 19
44 58 65 85 59 77 104 151 163 273 47 96 98 232 106 282 3 19 10 43 15 53 5 9
7 17 5 17 -3 0 -2 10 3 23 5 13 12 52 16 87 4 36 10 69 13 75 10 16 11 366 1
435 -16 112 -18 127 -39 218 -49 222 -167 466 -319 657 -81 104 -246 268 -331
333 -41 31 -77 59 -80 62 -10 11 -176 108 -235 138 -132 66 -332 130 -455 147
-19 2 -56 8 -81 13 -43 8 -433 14 -441 7z"/>
<path d="M1410 7670 c-129 -20 -186 -36 -293 -84 -192 -84 -411 -301 -504
-496 -94 -200 -121 -419 -77 -635 42 -207 125 -358 284 -516 123 -122 256
-207 405 -258 139 -47 349 -60 508 -30 238 44 473 198 634 416 29 39 53 77 53
82 0 6 5 11 10 11 6 0 10 9 10 20 0 11 3 20 8 20 12 0 74 158 86 220 3 19 9
46 12 60 12 50 11 271 -1 347 -37 231 -164 443 -371 621 -33 29 -66 52 -72 52
-7 0 -12 4 -12 9 0 12 -146 87 -218 112 -132 46 -338 68 -462 49z"/>
<path d="M8520 7660 c-220 -39 -391 -136 -565 -317 -53 -56 -54 -58 -102 -128
-82 -121 -134 -249 -158 -384 -12 -72 -13 -300 -1 -351 3 -14 9 -41 12 -60 9
-45 47 -147 81 -213 118 -233 347 -437 583 -519 117 -40 196 -52 345 -51 275
1 501 98 706 302 158 159 237 302 284 516 32 147 23 347 -22 490 -51 163 -132
294 -262 424 -126 126 -255 210 -396 256 -52 17 -57 19 -140 36 -86 18 -261
18 -365 -1z"/>
<path d="M830 5100 c-222 -50 -369 -131 -534 -296 -61 -61 -144 -173 -176
-239 -8 -16 -21 -41 -30 -55 -9 -14 -26 -56 -38 -95 -44 -144 -49 -205 -47
-594 1 -325 2 -338 25 -401 43 -122 141 -232 258 -291 36 -19 66 -33 66 -31 1
1 21 -4 47 -11 36 -11 161 -14 607 -14 l562 -1 6 37 c4 20 8 45 11 56 2 11 6
36 9 55 25 156 124 435 223 623 25 49 50 97 56 108 5 10 13 19 17 19 5 0 8 5
8 10 0 10 108 174 140 213 8 10 23 28 33 40 186 228 393 407 618 537 l76 44
-46 44 c-89 86 -241 175 -358 210 -166 51 -167 51 -833 50 -547 -1 -634 -3
-700 -18z"/>
<path d="M8055 5113 c-238 -49 -384 -118 -529 -248 l-54 -49 91 -55 c51 -30
94 -57 97 -61 3 -3 37 -28 75 -55 145 -103 374 -321 465 -444 14 -19 30 -39
35 -45 26 -28 134 -201 182 -291 74 -143 170 -383 187 -471 2 -10 12 -48 21
-84 19 -74 21 -80 31 -147 11 -66 11 -67 12 -79 2 -9 147 -12 557 -12 566 1
596 2 695 40 123 47 243 175 293 311 21 60 22 74 22 427 0 389 -4 437 -52 574
-101 288 -367 554 -643 642 -166 53 -170 53 -840 52 -344 0 -634 -3 -645 -5z"/>
<path d="M3767 4604 c-1 -1 -37 -4 -79 -8 -251 -21 -527 -110 -740 -239 -54
-32 -119 -76 -128 -87 -3 -3 -25 -19 -49 -35 -67 -46 -290 -270 -358 -360 -72
-96 -138 -203 -187 -305 -65 -132 -136 -362 -151 -489 -4 -30 -9 -63 -12 -75
-11 -40 -13 -800 -3 -836 6 -19 13 -51 16 -70 3 -19 9 -39 12 -45 4 -5 7 -12
7 -15 2 -17 51 -112 82 -159 50 -77 166 -189 238 -231 97 -58 203 -95 303
-106 66 -8 4734 -8 4806 0 32 3 61 8 65 11 4 2 20 6 36 9 44 8 132 46 200 85
54 31 235 202 235 222 0 4 13 28 30 52 16 25 30 52 30 60 0 9 4 18 9 21 10 7
48 141 56 201 6 45 7 673 0 720 -2 17 -7 57 -10 90 -24 225 -123 512 -244 708
-137 223 -386 475 -605 614 -76 48 -262 138 -336 163 -90 30 -94 31 -100 32
-3 0 -25 6 -50 14 -45 13 -180 39 -255 49 -22 3 -115 8 -208 10 l-167 5 -93
-41 c-123 -55 -230 -94 -341 -125 -88 -25 -103 -29 -156 -39 -14 -3 -34 -7
-45 -9 -11 -2 -40 -7 -65 -11 -25 -4 -52 -9 -61 -10 -93 -17 -422 -26 -525
-13 -34 4 -86 9 -115 12 -30 3 -63 8 -74 10 -28 5 -104 18 -110 18 -2 0 -37 9
-77 20 -40 10 -89 23 -108 28 -58 15 -230 79 -315 118 -80 36 -81 36 -218 37
-76 0 -139 -1 -140 -1z"/>
</g>
</svg>
